<?xml version="1.0" encoding="UTF-8" standalone="no"?>
<!-- Created with Inkscape (http://www.inkscape.org/) -->

<svg
   version="1.1"
   id="svg1654"
   width="711"
   height="711"
   viewBox="0 0 711 711"
   xmlns="http://www.w3.org/2000/svg"
   xmlns:svg="http://www.w3.org/2000/svg">
  <defs
     id="defs1658" />
  <g
     id="g1660">
    <g
       id="g2178"
       transform="matrix(1.9598695,0,0,1.9760194,-317.11454,-335.46448)">
      <path
         style="fill:#fefefe"
         d="m 337.75,504.30033 c -4.8125,-0.20801 -8.75,-0.81068 -8.75,-1.33926 0,-0.52859 0.5625,-0.95682 1.25,-0.95164 0.6875,0.005 6.56205,-2.56441 13.05456,-5.71022 l 11.80456,-5.71966 10.19544,5.15368 c 5.60749,2.83452 11.91309,5.67397 14.01244,6.30989 2.09935,0.63591 3.67435,1.28253 3.5,1.43692 -0.61266,0.54254 -36.41588,1.19421 -45.067,0.82029 z M 307.5489,482.2899 C 293.90363,457.54971 275.53972,433.91017 262.65597,424.5 l -2.73826,-2 1.46006,-12.33559 c 0.80304,-6.78457 1.73402,-12.60953 2.06884,-12.94435 0.33482,-0.33483 3.2109,-0.0713 6.39128,0.58558 11.93888,2.46594 22.46155,0.80685 31.76539,-5.00839 12.3873,-7.74251 36.92817,-31.58541 42.50619,-41.29725 5.26807,-9.1722 4.15053,-11.49932 -14.50585,-30.20619 -14.0593,-14.09735 -18.78454,-17.17884 -29.92606,-19.5158 -4.78901,-1.00451 -6.50534,-0.87873 -13.47909,0.98778 -13.02532,3.48619 -20.27431,7.48521 -29.64192,16.35244 l -8.40353,7.95464 -0.69762,-5.58355 c -1.11216,-8.90143 0.14356,-41.01256 2.01352,-51.48932 1.79203,-10.04016 7.6313,-28.96145 10.10692,-32.75 2.48871,-3.80857 4.0857,-2.62187 7.40158,5.5 5.70442,13.9723 7.90818,17.79327 14.89274,25.82159 9.28909,10.67725 23.21245,22.69755 41.47512,35.80629 8.3351,5.98283 18.83594,13.74533 23.33521,17.25 4.49927,3.50467 8.47712,6.37212 8.83968,6.37212 0.36256,0 6.06655,-4.28985 12.67555,-9.533 6.60899,-5.24315 17.48113,-13.32785 24.16031,-17.966 14.84073,-10.30568 28.78576,-22.33312 36.27591,-31.28757 4.95854,-5.92791 9.50724,-14.23617 16.67848,-30.46343 0.91147,-2.0625 2.10413,-3.75 2.65035,-3.75 1.69027,0 3.802,4.13178 6.89975,13.5 5.9103,17.87392 7.36624,27.77974 7.90006,53.75 0.2685,13.0625 0.17907,23.75 -0.19872,23.75 -0.37779,0 -4.20302,-3.09836 -8.5005,-6.88525 -9.7764,-8.61484 -14.20908,-11.21078 -25.70886,-15.05604 -10.71463,-3.58272 -14.83954,-3.76981 -23.58179,-1.06961 -4.94034,1.52592 -8.16672,3.46729 -13.85534,8.33701 -9.42578,8.06892 -25.41367,24.80303 -27.43912,28.71982 -1.42745,2.76039 -1.40037,3.33329 0.34154,7.22608 2.44805,5.47084 13.86062,18.41934 28.25362,32.05606 9.13846,8.65828 13.03168,11.59991 19.42859,14.67981 11.16321,5.37472 18.2856,6.62068 26.169,4.57789 9.80731,-2.54133 10.22285,-2.40758 10.17882,3.27636 -0.0207,2.67417 0.51257,8.27302 1.18508,12.4419 l 1.22275,7.57977 -8.63663,8.17529 c -4.75014,4.49641 -12.79516,13.52416 -17.87782,20.06167 -8.52833,10.96947 -11.18057,15.13184 -22.70276,35.62924 -2.3886,4.2492 -4.73324,7.25 -5.6647,7.25 -0.8741,0 -7.7703,-2.91464 -15.3249,-6.47697 -23.048,-10.86817 -26.94803,-10.97216 -47.54884,-1.26784 -7.7,3.6272 -15.125,6.8716 -16.5,7.20977 -2.31996,0.57057 -2.92858,-0.16222 -8.4511,-10.17506 z M 407.96585,463.03415 C 411.64683,459.35317 415,451.33865 415,446.22158 c 0,-6.92452 -3.61593,-20.0482 -6.79047,-24.64534 -3.14289,-4.55132 -14.0892,-13.16747 -22.26389,-17.52453 l -5.66812,-3.02107 -0.69954,-8.62153 c -0.88238,-10.87482 -3.27983,-18.60766 -8.48589,-27.37077 -7.06576,-11.89343 -14.18117,-15.62923 -22.03388,-11.56844 -8.65985,4.47818 -16.86235,22.80084 -18.59176,41.5301 l -0.60019,6.5 -8.97898,4.92875 c -14.61529,8.02264 -20.82206,15.42438 -24.34442,29.03135 -2.27097,8.77281 -1.95391,12.41947 1.70714,19.63474 3.45112,6.80153 7.04011,9.55113 11.12774,8.5252 1.22665,-0.30787 6.03097,-3.3078 10.67627,-6.66652 4.64529,-3.35871 11.82099,-7.75977 15.94599,-9.78014 7.19992,-3.52641 7.92011,-3.67282 18,-3.65929 15.88611,0.0213 20.89954,2.05725 41.81412,16.98056 6.98587,4.98467 9.23627,5.45496 12.15173,2.5395 z M 386,428.84481 C 372.94972,422.15261 368.14372,421 353.28983,421 c -11.90121,0 -19.45283,2.04289 -33.31432,9.01232 -4.38653,2.2055 -7.97551,3.59393 -7.97551,3.08539 0,-1.22888 11.19124,-10.56783 17.60661,-14.6925 8.14611,-5.23742 12.27819,-12.87736 18.34227,-33.9136 3.54761,-12.30662 5.29342,-15.7196 7.59009,-14.83828 2.28727,0.87771 4.10938,5.03041 7.01585,15.98962 2.9874,11.26437 7.66763,23.09883 10.61868,26.85048 1.10855,1.40931 3.66438,3.40354 5.67961,4.43163 5.57671,2.84503 22.47012,18.41649 19.46947,17.94595 -0.45242,-0.071 -5.99758,-2.78274 -12.32258,-6.0262 z M 271.5,381.97365 c -9.11819,-1.8401 -11.8695,-3.91844 -13.5758,-10.25514 -0.62076,-2.30532 -2.9054,-8.65123 -5.07699,-14.10203 -2.17159,-5.45079 -3.72119,-10.5025 -3.44355,-11.22601 C 249.89114,345.1201 261.01682,339 262.83873,339 c 0.49267,0 2.36905,3.9375 4.16972,8.75 6.41756,17.15162 9.771,21.53034 21.74155,28.38882 5.55676,3.18372 5.96158,3.7496 4.05,5.66118 -1.35867,1.35867 -14.88161,1.46891 -21.3,0.17365 z m 146.07143,-0.54508 c -2.53369,-2.53368 -1.92076,-3.35548 4.72727,-6.33825 10.07987,-4.52254 18.06153,-15.4012 21.71036,-29.59032 0.70719,-2.75 1.61899,-5.37704 2.02624,-5.83788 1.28057,-1.44906 14.4271,5.59879 14.75983,7.91274 0.16233,1.12887 -1.51735,6.70332 -3.73261,12.38768 -2.21526,5.68436 -4.31363,11.85909 -4.66305,13.72162 -0.44928,2.39487 -1.50443,3.83588 -3.60361,4.9214 -7.77158,4.01884 -28.18318,5.86426 -31.22443,2.82301 z M 298.16005,363.58409 c -9.69947,-3.93362 -14.39122,-7.82156 -13.95433,-11.5636 0.32995,-2.82603 1.29476,-2.90919 7.29428,-0.62872 5.44999,2.0716 25.41059,2.14565 32.09107,0.11905 2.69991,-0.81904 5.09987,-1.49404 5.33324,-1.5 0.23338,-0.006 -0.66662,1.16201 -2,2.59547 -2.39884,2.57891 -18.72942,14.40934 -19.84567,14.37689 -0.31825,-0.009 -4.33162,-1.53884 -8.91859,-3.39909 z m 93.82487,-4.19286 c -5.5554,-4.18482 -9.94274,-7.76674 -9.74966,-7.95982 0.19308,-0.19308 4.38164,0.0729 9.3079,0.591 4.92626,0.51813 13.00684,0.94005 17.95684,0.93759 7.40839,-0.004 9.44212,-0.3503 11.5,-1.96 4.81872,-3.76926 7.13018,-1.41275 3.78955,3.86341 -1.46626,2.31578 -4.59746,4.42068 -11.40164,7.66457 C 408.22877,364.98759 403.5752,367 403.04664,367 c -0.52855,0 -5.50633,-3.42394 -11.06172,-7.60877 z M 294.5,335.88871 c -6.77103,-1.54107 -9.49727,-3.02966 -10.12434,-5.52811 -0.86193,-3.43419 0.4701,-10.98771 2.18924,-12.41447 1.92544,-1.59796 13.01035,-0.73525 16.98029,1.32155 C 307.52197,321.32802 320,332.8514 320,334.46359 c 0,0.70753 -1.40625,1.56766 -3.125,1.91141 -4.41227,0.88245 -17.62259,0.59534 -22.375,-0.48629 z m 95.5,0.13843 c -1.24725,-0.91418 -0.15203,-2.37662 6.5,-8.67933 11.28534,-10.69272 10.71787,-10.42263 20.33955,-9.68066 l 8.23913,0.63535 -0.28934,7.59875 L 424.5,333.5 l -5,1.29653 c -6.88377,1.785 -27.56648,2.64779 -29.5,1.23061 z M 341,298.24896 C 329.87009,290.92041 310.61277,275.41764 302.24529,267.05017 287.74778,252.55266 284.09896,246.57255 277.50321,226.5 c -2.90783,-8.84928 -2.92565,-9.41986 -0.37955,-12.15366 4.49787,-4.82946 32.6352,-17.32471 42.60105,-18.91831 3.59646,-0.5751 4.04901,-0.40681 4.6176,1.71719 0.34671,1.29513 0.63653,9.22884 0.64404,17.63046 L 325,230.05136 321.97003,228.4845 c -1.66648,-0.86177 -5.81742,-3.36847 -9.22431,-5.57045 -8.19514,-5.29678 -10.28346,-5.01597 -14.43179,1.9406 -10.44846,17.52157 -5.11487,28.65963 24.85171,51.89747 C 334.50775,285.54746 345,295.96248 345,298.42576 c 0,1.95592 -0.81578,1.91987 -4,-0.1768 z m 24,0.66449 c 0,-2.07195 12.5521,-14.22134 23,-22.26209 22.02878,-16.95344 29.89605,-27.39323 28.64818,-38.01587 -0.73828,-6.28475 -6.95283,-19.28002 -9.62569,-20.12835 -1.34154,-0.42579 -4.41131,1.08984 -10.10463,4.98894 -9.18236,6.28859 -11.44634,6.63533 -11.3623,1.74022 0.0306,-1.77996 0.14994,-8.7488 0.26531,-15.4863 0.11536,-6.7375 0.58452,-12.84097 1.04256,-13.56327 0.65903,-1.03923 3.52501,-0.4385 13.73469,2.87889 16.21125,5.26745 22.32686,7.93813 29.98059,13.0925 l 6.07871,4.09368 -2.76148,7.6241 c -1.51881,4.19326 -3.72493,10.37867 -4.90249,13.74536 -5.77256,16.50406 -25.80305,37.42356 -53.96359,56.35866 C 365.54803,300.35549 365,300.62506 365,298.91345 Z m -14.48808,-18.68687 c -4.14756,-6.23734 -5.8906,-7.77842 -16.70383,-14.76831 C 314.54656,253.00722 305.82203,243 314.22843,243 c 2.84622,0 4.81183,1.65522 16.60328,13.98151 14.75997,15.42946 15.73889,16.0032 27.32091,16.01291 l 6.65261,0.006 -4.33288,6.59693 c -2.38308,3.62831 -4.55715,6.8212 -4.83126,7.09531 -0.27411,0.27412 -2.58224,-2.63543 -5.12917,-6.46566 z m 28.30465,-21.77106 c 7.32411,-7.67554 14.35896,-14.36137 15.63299,-14.85741 2.52231,-0.98205 5.55044,-0.25334 5.55044,1.33571 0,2.13315 -6.70408,8.44739 -16.38083,15.42829 -18.74189,13.52058 -19.30872,13.29555 -4.8026,-1.90659 z m -30.24132,-3.33377 c -0.79726,-1.28999 4.36147,-2.07405 9.29364,-1.41251 2.85912,0.38349 3.84584,0.85609 2.95997,1.41769 -1.76301,1.11768 -11.56221,1.11353 -12.25361,-0.005 z M 352.75,236.9199 c -0.9625,-0.5606 -1.75,-1.62377 -1.75,-2.3626 0,-2.41212 5.1959,-3.40042 8,-1.52167 1.28016,0.85771 1.154,1.29514 -0.86078,2.98469 -2.68508,2.25162 -2.98263,2.30129 -5.38922,0.89958 z m -14.77475,-16.485 C 337.43886,219.0241 337,212.93497 337,206.90352 c 0,-8.96154 0.2821,-11.07454 1.54313,-11.55844 0.84872,-0.32569 1.7192,-0.41609 1.93439,-0.20089 0.62861,0.6286 4.52248,19.9527 4.52248,22.44368 0,2.56665 -2.41649,5.41213 -4.59618,5.41213 -0.79933,0 -1.89218,-1.15429 -2.42857,-2.5651 z m 28.49193,0.52883 c -1.83782,-2.03076 -1.84044,-2.35918 -0.10089,-12.6409 C 368.43946,196.06919 368.7712,195 370.5,195 c 2.02416,0 2.50107,2.46238 2.48526,12.83179 -0.0197,12.90323 -2.39471,17.68821 -6.51808,13.13194 z"
         id="path2188" />
      <path
         style="fill:#bfbfbf"
         d="m 349.75,519.26779 c 2.3375,-0.21053 6.1625,-0.21053 8.5,0 2.3375,0.21054 0.425,0.3828 -4.25,0.3828 -4.675,0 -6.5875,-0.17226 -4.25,-0.3828 z m -24,-0.93007 c 0.6875,-0.27741 1.8125,-0.27741 2.5,0 0.6875,0.27741 0.125,0.50439 -1.25,0.50439 -1.375,0 -1.9375,-0.22698 -1.25,-0.50439 z m 53,0 c 0.6875,-0.27741 1.8125,-0.27741 2.5,0 0.6875,0.27741 0.125,0.50439 -1.25,0.50439 -1.375,0 -1.9375,-0.22698 -1.25,-0.50439 z m -39.48625,-14.0553 c 1.52006,-0.22986 3.77006,-0.22371 5,0.0136 1.22994,0.23736 -0.0138,0.42542 -2.76375,0.41792 -2.75,-0.008 -3.75631,-0.20172 -2.23625,-0.43157 z m 26.50416,-0.007 c 1.79735,-0.22256 4.49735,-0.21797 6,0.0102 1.50265,0.22818 0.0321,0.41027 -3.26791,0.40466 -3.3,-0.006 -4.52944,-0.1923 -2.73209,-0.41486 z M 262.87244,445.25 c -1.24387,-1.58606 -1.2085,-1.62143 0.37756,-0.37756 1.66575,1.30637 2.19548,2.12756 1.37244,2.12756 -0.20765,0 -0.99515,-0.7875 -1.75,-1.75 z m 129,-18 c -1.24387,-1.58606 -1.2085,-1.62143 0.37756,-0.37756 1.66575,1.30637 2.19548,2.12756 1.37244,2.12756 -0.20765,0 -0.99515,-0.7875 -1.75,-1.75 z M 305,417.62244 c 0,-0.20765 0.7875,-0.99515 1.75,-1.75 1.58606,-1.24387 1.62143,-1.2085 0.37756,0.37756 C 305.82119,417.91575 305,418.44548 305,417.62244 Z m -43.92105,-9.20577 c 0.048,-1.16495 0.28494,-1.4019 0.60416,-0.60417 0.28887,0.72187 0.25335,1.58438 -0.0789,1.91667 -0.33229,0.33229 -0.56864,-0.25834 -0.52522,-1.3125 z m 201,-5 c 0.048,-1.16495 0.28494,-1.4019 0.60416,-0.60417 0.28887,0.72187 0.25335,1.58438 -0.0789,1.91667 -0.33229,0.33229 -0.56864,-0.25834 -0.52522,-1.3125 z m -32.82895,-4.106 c 0.9625,-0.25152 2.5375,-0.25152 3.5,0 0.9625,0.25153 0.175,0.45733 -1.75,0.45733 -1.925,0 -2.7125,-0.2058 -1.75,-0.45733 z m -99.17105,-1.894 c 0.048,-1.16495 0.28494,-1.4019 0.60416,-0.60417 0.28887,0.72187 0.25335,1.58438 -0.0789,1.91667 -0.33229,0.33229 -0.56864,-0.25834 -0.52522,-1.3125 z M 248.28601,393.5 c 0.008,-2.75 0.20172,-3.75631 0.43157,-2.23625 0.22986,1.52006 0.22371,3.77006 -0.0136,5 -0.23736,1.22994 -0.42542,-0.0138 -0.41792,-2.76375 z m 15.52649,2.81689 c 0.72187,-0.28887 1.58438,-0.25335 1.91667,0.0789 0.33229,0.33229 -0.25834,0.56864 -1.3125,0.52522 -1.16495,-0.048 -1.4019,-0.28494 -0.60417,-0.60416 z m 181,0 c 0.72187,-0.28887 1.58438,-0.25335 1.91667,0.0789 0.33229,0.33229 -0.25834,0.56864 -1.3125,0.52522 -1.16495,-0.048 -1.4019,-0.28494 -0.60417,-0.60416 z M 379.15789,393 c 0,-1.375 0.22698,-1.9375 0.50439,-1.25 0.27741,0.6875 0.27741,1.8125 0,2.5 -0.27741,0.6875 -0.50439,0.125 -0.50439,-1.25 z m 15.2471,-11.25 -1.90499,-2.25 2.25,1.90499 c 2.11444,1.79022 2.70524,2.59501 1.90499,2.59501 -0.18976,0 -1.20226,-1.0125 -2.25,-2.25 z M 319,378.62244 c 0,-0.20765 0.7875,-0.99515 1.75,-1.75 1.58606,-1.24387 1.62143,-1.2085 0.37756,0.37756 C 319.82119,378.91575 319,379.44548 319,378.62244 Z M 375.40499,362.75 373.5,360.5 l 2.25,1.90499 c 2.11444,1.79022 2.70524,2.59501 1.90499,2.59501 -0.18976,0 -1.20226,-1.0125 -2.25,-2.25 z M 397.75,352.33772 c 0.6875,-0.27741 1.8125,-0.27741 2.5,0 0.6875,0.27741 0.125,0.50439 -1.25,0.50439 -1.375,0 -1.9375,-0.22698 -1.25,-0.50439 z m 24.47619,-2.91644 c 0.94941,-0.99123 1.94144,-1.58698 2.20452,-1.3239 0.26308,0.26308 -0.5137,1.07408 -1.72619,1.80223 -2.10631,1.26492 -2.12762,1.24361 -0.47833,-0.47833 z M 476.19495,347.5 c 0.0204,-1.65 0.2445,-2.20394 0.49804,-1.23097 0.25354,0.97297 0.23687,2.32297 -0.0371,3 -0.27393,0.67703 -0.48137,-0.11903 -0.46099,-1.76903 z m -242.94277,-7 c 0.0111,-2.2 0.21589,-2.98225 0.45508,-1.73834 0.23919,1.24391 0.23011,3.04391 -0.0202,4 -0.25029,0.95609 -0.446,-0.0617 -0.4349,-2.26166 z M 306.25,337.31067 c 0.9625,-0.25152 2.5375,-0.25152 3.5,0 0.9625,0.25153 0.175,0.45733 -1.75,0.45733 -1.925,0 -2.7125,-0.2058 -1.75,-0.45733 z m 103.5625,-0.99378 c 0.72187,-0.28887 1.58438,-0.25335 1.91667,0.0789 0.33229,0.33229 -0.25834,0.56864 -1.3125,0.52522 -1.16495,-0.048 -1.4019,-0.28494 -0.60417,-0.60416 z M 369.5,332 c 0.99549,-1.1 2.03498,-2 2.30998,-2 0.275,0 -0.31449,0.9 -1.30998,2 -0.99549,1.1 -2.03498,2 -2.30998,2 -0.275,0 0.31449,-0.9 1.30998,-2 z m -52.57569,-1.75 -2.42431,-2.75 2.75,2.42431 c 2.57029,2.26589 3.20859,3.07569 2.42431,3.07569 -0.17912,0 -1.41662,-1.2375 -2.75,-2.75 z m 21.94813,1 c -1.24387,-1.58606 -1.2085,-1.62143 0.37756,-0.37756 1.66575,1.30637 2.19548,2.12756 1.37244,2.12756 -0.20765,0 -0.99515,-0.7875 -1.75,-1.75 z m 86.20651,-3.83333 c 0.048,-1.16495 0.28494,-1.4019 0.60416,-0.60417 0.28887,0.72187 0.25335,1.58438 -0.0789,1.91667 -0.33229,0.33229 -0.56864,-0.25834 -0.52522,-1.3125 z m -177.69491,-0.85826 c -0.30425,-0.79287 -0.34233,-2.25537 -0.0846,-3.25 0.30026,-1.15886 0.51023,-0.79946 0.58457,1.00061 0.0764,1.85004 0.51014,2.56542 1.27051,2.09549 0.7153,-0.44208 0.88306,-0.27432 0.44098,0.44098 -0.94745,1.53301 -1.54266,1.45575 -2.21145,-0.28708 z M 477.15789,326 c 0,-1.375 0.22698,-1.9375 0.50439,-1.25 0.27741,0.6875 0.27741,1.8125 0,2.5 -0.27741,0.6875 -0.50439,0.125 -0.50439,-1.25 z m -21.23358,-4.75 -2.42431,-2.75 2.75,2.42431 c 2.57029,2.26589 3.20859,3.07569 2.42431,3.07569 -0.17912,0 -1.41662,-1.2375 -2.75,-2.75 z M 384,317.68709 c 0,-0.1721 1.4625,-1.6346 3.25,-3.25 l 3.25,-2.93709 -2.93709,3.25 C 384.82513,317.77946 384,318.45965 384,317.68709 Z m 31.76166,-0.39435 c 1.24391,-0.23919 3.04391,-0.23011 4,0.0202 0.95609,0.25029 -0.0617,0.446 -2.26166,0.4349 -2.2,-0.0111 -2.98225,-0.21589 -1.73834,-0.45508 z M 477.27236,305 c 0,-2.475 0.19502,-3.4875 0.43337,-2.25 0.23836,1.2375 0.23836,3.2625 0,4.5 -0.23835,1.2375 -0.43337,0.225 -0.43337,-2.25 z m -231.02018,-1.5 c 0.0111,-2.2 0.21589,-2.98225 0.45508,-1.73834 0.23919,1.24391 0.23011,3.04391 -0.0202,4 -0.25029,0.95609 -0.446,-0.0617 -0.4349,-2.26166 z m 92.69399,-13.25 -3.44617,-3.75 3.75,3.44617 c 2.0625,1.89539 3.75,3.58289 3.75,3.75 0,0.76362 -0.84622,0.0442 -4.05383,-3.44617 z M 372.5,289 c 2.14824,-2.2 4.1309,-4 4.4059,-4 0.275,0 -1.25766,1.8 -3.4059,4 -2.14824,2.2 -4.1309,4 -4.4059,4 -0.275,0 1.25766,-1.8 3.4059,-4 z m 103.65789,-3 c 0,-1.375 0.22698,-1.9375 0.50439,-1.25 0.27741,0.6875 0.27741,1.8125 0,2.5 -0.27741,0.6875 -0.50439,0.125 -0.50439,-1.25 z m -14,-2 c 0,-1.375 0.22698,-1.9375 0.50439,-1.25 0.27741,0.6875 0.27741,1.8125 0,2.5 -0.27741,0.6875 -0.50439,0.125 -0.50439,-1.25 z M 416.5,281 c 0.99549,-1.1 2.03498,-2 2.30998,-2 0.275,0 -0.31449,0.9 -1.30998,2 -0.99549,1.1 -2.03498,2 -2.30998,2 -0.275,0 0.31449,-0.9 1.30998,-2 z M 288.46241,275.75 283.5,270.5 l 5.25,4.96241 c 4.87839,4.61116 5.7086,5.53759 4.96241,5.53759 -0.15818,0 -2.52068,-2.3625 -5.25,-5.25 z m -55.38346,-0.33333 c 0.048,-1.16495 0.28494,-1.4019 0.60416,-0.60417 0.28887,0.72187 0.25335,1.58438 -0.0789,1.91667 -0.3323,0.33229 -0.56864,-0.25834 -0.52522,-1.3125 z m 242,0 c 0.048,-1.16495 0.28494,-1.4019 0.60416,-0.60417 0.28887,0.72187 0.25335,1.58438 -0.0789,1.91667 -0.33229,0.33229 -0.56864,-0.25834 -0.52522,-1.3125 z M 305.87244,271.25 c -1.24387,-1.58606 -1.2085,-1.62143 0.37756,-0.37756 1.66575,1.30637 2.19548,2.12756 1.37244,2.12756 -0.20765,0 -0.99515,-0.7875 -1.75,-1.75 z M 425,272.62244 c 0,-0.20765 0.7875,-0.99515 1.75,-1.75 1.58606,-1.24387 1.62143,-1.2085 0.37756,0.37756 C 425.82119,272.91575 425,273.44548 425,272.62244 Z m -25,-6 c 0,-0.20765 0.7875,-0.99515 1.75,-1.75 1.58606,-1.24387 1.62143,-1.2085 0.37756,0.37756 C 400.82119,266.91575 400,267.44548 400,266.62244 Z M 296.40499,261.75 294.5,259.5 l 2.25,1.90499 c 2.11444,1.79022 2.70524,2.59501 1.90499,2.59501 -0.18976,0 -1.20226,-1.0125 -2.25,-2.25 z m 4.46745,-4.5 c -1.24387,-1.58606 -1.2085,-1.62143 0.37756,-0.37756 1.66575,1.30637 2.19548,2.12756 1.37244,2.12756 -0.20765,0 -0.99515,-0.7875 -1.75,-1.75 z M 351.75,256.33772 c 0.6875,-0.27741 1.8125,-0.27741 2.5,0 0.6875,0.27741 0.125,0.50439 -1.25,0.50439 -1.375,0 -1.9375,-0.22698 -1.25,-0.50439 z M 383.5,253 c 0.99549,-1.1 2.03498,-2 2.30998,-2 0.275,0 -0.31449,0.9 -1.30998,2 -0.99549,1.1 -2.03498,2 -2.30998,2 -0.275,0 0.31449,-0.9 1.30998,-2 z m -33.6875,0.31689 c 0.72187,-0.28887 1.58438,-0.25335 1.91667,0.0789 0.33229,0.33229 -0.25834,0.56864 -1.3125,0.52522 -1.16495,-0.048 -1.4019,-0.28494 -0.60417,-0.60416 z M 395,251.62244 c 0,-0.20765 0.7875,-0.99515 1.75,-1.75 1.58606,-1.24387 1.62143,-1.2085 0.37756,0.37756 C 395.82119,251.91575 395,252.44548 395,251.62244 Z m 0.8125,-9.30555 c 0.72187,-0.28887 1.58438,-0.25335 1.91667,0.0789 0.33229,0.33229 -0.25834,0.56864 -1.3125,0.52522 -1.16495,-0.048 -1.4019,-0.28494 -0.60417,-0.60416 z M 293.15789,240 c 0,-1.375 0.22698,-1.9375 0.50439,-1.25 0.27741,0.6875 0.27741,1.8125 0,2.5 -0.27741,0.6875 -0.50439,0.125 -0.50439,-1.25 z m 122.92106,-1.58333 c 0.048,-1.16495 0.28494,-1.4019 0.60416,-0.60417 0.28887,0.72187 0.25335,1.58437 -0.0789,1.91667 -0.33229,0.33229 -0.56864,-0.25834 -0.52522,-1.3125 z m -31,-18 c 0.048,-1.16495 0.28494,-1.4019 0.60416,-0.60417 0.28887,0.72187 0.25335,1.58437 -0.0789,1.91667 -0.33229,0.33229 -0.56864,-0.25834 -0.52522,-1.3125 z m -60,-1 c 0.048,-1.16495 0.28494,-1.4019 0.60416,-0.60417 0.28887,0.72187 0.25335,1.58437 -0.0789,1.91667 -0.33229,0.33229 -0.56864,-0.25834 -0.52522,-1.3125 z M 373.25218,207.5 c 0.0111,-2.2 0.21589,-2.98225 0.45508,-1.73834 0.23919,1.24391 0.23011,3.04391 -0.0202,4 -0.25029,0.95609 -0.446,-0.0617 -0.4349,-2.26166 z M 264.5,205 c 0.99549,-1.1 2.03498,-2 2.30998,-2 0.275,0 -0.31449,0.9 -1.30998,2 -0.99549,1.1 -2.03498,2 -2.30998,2 -0.275,0 0.31449,-0.9 1.30998,-2 z m 106.25,-24.73221 c 2.3375,-0.21053 6.1625,-0.21053 8.5,0 2.3375,0.21054 0.425,0.3828 -4.25,0.3828 -4.675,0 -6.5875,-0.17226 -4.25,-0.3828 z"
         id="path2186" />
      <path
         style="fill:#7f7f7f"
         d="m 330.26903,518.30701 c 0.97297,-0.25354 2.32297,-0.23687 3,0.0371 0.67703,0.27393 -0.11903,0.48137 -1.76903,0.46099 -1.65,-0.0204 -2.20394,-0.2445 -1.23097,-0.49804 z m 45.54347,0.01 c 0.72187,-0.28887 1.58438,-0.25335 1.91667,0.0789 0.33229,0.33229 -0.25834,0.56864 -1.3125,0.52522 -1.16495,-0.048 -1.4019,-0.28494 -0.60417,-0.60416 z M 316.43709,514.75 313.5,511.5 l 3.25,2.93709 c 3.02946,2.73778 3.70965,3.56291 2.93709,3.56291 -0.1721,0 -1.6346,-1.4625 -3.25,-3.25 z M 391,515.62244 c 0,-0.20765 0.7875,-0.99515 1.75,-1.75 1.58606,-1.24387 1.62143,-1.2085 0.37756,0.37756 C 391.82119,515.91575 391,516.44548 391,515.62244 Z M 310.87244,509.25 c -1.24387,-1.58606 -1.2085,-1.62143 0.37756,-0.37756 1.66575,1.30637 2.19548,2.12756 1.37244,2.12756 -0.20765,0 -0.99515,-0.7875 -1.75,-1.75 z M 405,505.5 c 1.29175,-1.375 2.57363,-2.5 2.84863,-2.5 0.275,0 -0.55688,1.125 -1.84863,2.5 -1.29175,1.375 -2.57363,2.5 -2.84863,2.5 -0.275,0 0.55688,-1.125 1.84863,-2.5 z m -71.73097,-1.19299 c 0.97297,-0.25354 2.32297,-0.23687 3,0.0371 0.67703,0.27393 -0.11903,0.48137 -1.76903,0.46099 -1.65,-0.0204 -2.20394,-0.2445 -1.23097,-0.49804 z m 41.48097,0.0307 c 0.6875,-0.27741 1.8125,-0.27741 2.5,0 0.6875,0.27741 0.125,0.50439 -1.25,0.50439 -1.375,0 -1.9375,-0.22698 -1.25,-0.50439 z m -5,-5.90969 c -3.87722,-2.10343 -3.43809,-2.82933 0.5,-0.82653 3.76952,1.91707 4.43665,2.41393 3.16667,2.35846 -0.50417,-0.022 -2.15417,-0.71139 -3.66667,-1.53193 z M 418,485 c 0.5887,-1.1 1.29537,-2 1.57037,-2 0.275,0 0.0183,0.9 -0.57037,2 -0.5887,1.1 -1.29537,2 -1.57037,2 -0.275,0 -0.0183,-0.9 0.57037,-2 z m -16,-1 c 0.5887,-1.1 1.29537,-2 1.57037,-2 0.275,0 0.0183,0.9 -0.57037,2 -0.5887,1.1 -1.29537,2 -1.57037,2 -0.275,0 -0.0183,-0.9 0.57037,-2 z m -47.25,-5.66228 c 0.6875,-0.27741 1.8125,-0.27741 2.5,0 0.6875,0.27741 0.125,0.50439 -1.25,0.50439 -1.375,0 -1.9375,-0.22698 -1.25,-0.50439 z m 48.0625,-14.02083 c 0.72187,-0.28887 1.58438,-0.25335 1.91667,0.0789 0.33229,0.33229 -0.25834,0.56864 -1.3125,0.52522 -1.16495,-0.048 -1.4019,-0.28494 -0.60417,-0.60416 z M 393.87244,459.25 c -1.24387,-1.58606 -1.2085,-1.62143 0.37756,-0.37756 1.66575,1.30637 2.19548,2.12756 1.37244,2.12756 -0.20765,0 -0.99515,-0.7875 -1.75,-1.75 z M 417,458.62244 c 0,-0.20765 0.7875,-0.99515 1.75,-1.75 1.58606,-1.24387 1.62143,-1.2085 0.37756,0.37756 C 417.82119,458.91575 417,459.44548 417,458.62244 Z m 21,-4 c 0,-0.20765 0.7875,-0.99515 1.75,-1.75 1.58606,-1.24387 1.62143,-1.2085 0.37756,0.37756 C 438.82119,454.91575 438,455.44548 438,454.62244 Z M 265.87244,448.25 c -1.24387,-1.58606 -1.2085,-1.62143 0.37756,-0.37756 0.9625,0.75485 1.75,1.54235 1.75,1.75 0,0.82304 -0.82119,0.29331 -2.12756,-1.37244 z M 379,449 c -0.90129,-0.58246 -1.02463,-0.97549 -0.30902,-0.98469 0.65504,-0.008 1.4691,0.43469 1.80902,0.98469 0.7673,1.24153 0.42112,1.24153 -1.5,0 z m 68.5,-5 c 2.14824,-2.2 4.1309,-4 4.4059,-4 0.275,0 -1.25766,1.8 -3.4059,4 -2.14824,2.2 -4.1309,4 -4.4059,4 -0.275,0 1.25766,-1.8 3.4059,-4 z m -152.268,0 c 0,-1.925 0.2058,-2.7125 0.45733,-1.75 0.25152,0.9625 0.25152,2.5375 0,3.5 -0.25153,0.9625 -0.45733,0.175 -0.45733,-1.75 z M 427,445.62244 c 0,-0.20765 0.7875,-0.99515 1.75,-1.75 1.58606,-1.24387 1.62143,-1.2085 0.37756,0.37756 C 427.82119,445.91575 427,446.44548 427,445.62244 Z m -74.75,-3.31177 c 0.9625,-0.25152 2.5375,-0.25152 3.5,0 0.9625,0.25153 0.175,0.45733 -1.75,0.45733 -1.925,0 -2.7125,-0.2058 -1.75,-0.45733 z M 433,438.5 c 1.29175,-1.375 2.57363,-2.5 2.84863,-2.5 0.275,0 -0.55688,1.125 -1.84863,2.5 -1.29175,1.375 -2.57363,2.5 -2.84863,2.5 -0.275,0 0.55688,-1.125 1.84863,-2.5 z M 248.92431,433.25 246.5,430.5 l 2.75,2.42431 c 2.57029,2.26589 3.20859,3.07569 2.42431,3.07569 -0.17912,0 -1.41662,-1.2375 -2.75,-2.75 z m 21.52864,-1.5 -3.95295,-4.25 4.25,3.95295 c 3.95246,3.6762 4.70953,4.54705 3.95295,4.54705 -0.16338,0 -2.07588,-1.9125 -4.25,-4.25 z M 442,429.62244 c 0,-0.20765 0.7875,-0.99515 1.75,-1.75 1.58606,-1.24387 1.62143,-1.2085 0.37756,0.37756 C 442.82119,429.91575 442,430.44548 442,429.62244 Z m -142,-4.56342 c 0,-0.51754 0.44485,-1.21592 0.98855,-1.55194 0.56686,-0.35034 0.7345,0.0511 0.39301,0.94098 C 300.71677,426.18048 300,426.49745 300,425.05902 Z M 388.40499,423.75 386.5,421.5 l 2.25,1.90499 c 1.2375,1.04774 2.25,2.06024 2.25,2.25 0,0.80025 -0.80479,0.20945 -2.59501,-1.90499 z M 465.232,423 c 0,-1.925 0.2058,-2.7125 0.45733,-1.75 0.25152,0.9625 0.25152,2.5375 0,3.5 -0.25153,0.9625 -0.45733,0.175 -0.45733,-1.75 z m -221,-1 c 0,-1.925 0.2058,-2.7125 0.45733,-1.75 0.25152,0.9625 0.25152,2.5375 0,3.5 -0.25153,0.9625 -0.45733,0.175 -0.45733,-1.75 z m 205.84695,-0.58333 c 0.048,-1.16495 0.28494,-1.4019 0.60416,-0.60417 0.28887,0.72187 0.25335,1.58438 -0.0789,1.91667 -0.33229,0.33229 -0.56864,-0.25834 -0.52522,-1.3125 z m -88.32895,-0.079 c 0.6875,-0.27741 1.8125,-0.27741 2.5,0 0.6875,0.27741 0.125,0.50439 -1.25,0.50439 -1.375,0 -1.9375,-0.22698 -1.25,-0.50439 z M 382.87244,419.25 c -1.24387,-1.58606 -1.2085,-1.62143 0.37756,-0.37756 1.66575,1.30637 2.19548,2.12756 1.37244,2.12756 -0.20765,0 -0.99515,-0.7875 -1.75,-1.75 z m 21.53255,-1.5 -1.90499,-2.25 2.25,1.90499 c 2.11444,1.79022 2.70524,2.59501 1.90499,2.59501 -0.18976,0 -1.20226,-1.0125 -2.25,-2.25 z m -30.53255,-4.5 c -1.24387,-1.58606 -1.2085,-1.62143 0.37756,-0.37756 1.66575,1.30637 2.19548,2.12756 1.37244,2.12756 -0.20765,0 -0.99515,-0.7875 -1.75,-1.75 z m 24,-1 c -1.24387,-1.58606 -1.2085,-1.62143 0.37756,-0.37756 1.66575,1.30637 2.19548,2.12756 1.37244,2.12756 -0.20765,0 -0.99515,-0.7875 -1.75,-1.75 z m -58.17704,-6.73744 c 0.91468,-1.9181 1.84058,-3.30991 2.05756,-3.09293 0.45746,0.45746 -2.5782,6.58037 -3.26246,6.58037 -0.25198,0 0.29023,-1.56935 1.2049,-3.48744 z m -78.61645,-0.0959 c 0.048,-1.16495 0.28494,-1.4019 0.60416,-0.60417 0.28887,0.72187 0.25335,1.58438 -0.0789,1.91667 -0.33229,0.33229 -0.56864,-0.25834 -0.52522,-1.3125 z M 383.75,403.93191 c -2.0625,-1.08883 -3.75,-2.20308 -3.75,-2.47612 0,-0.27304 1.8,0.42185 4,1.54421 2.2,1.12236 4,2.2565 4,2.52032 0,0.65417 -0.007,0.65155 -4.25,-1.58841 z m -53.67105,-3.51524 c 0.048,-1.16495 0.28494,-1.4019 0.60416,-0.60417 0.28887,0.72187 0.25335,1.58438 -0.0789,1.91667 -0.33229,0.33229 -0.56864,-0.25834 -0.52522,-1.3125 z m -82,-1 c 0.048,-1.16495 0.28494,-1.4019 0.60416,-0.60417 0.28887,0.72187 0.25335,1.58438 -0.0789,1.91667 -0.3323,0.33229 -0.56864,-0.25834 -0.52522,-1.3125 z m 131,-3 c 0.048,-1.16495 0.28494,-1.4019 0.60416,-0.60417 0.28887,0.72187 0.25335,1.58438 -0.0789,1.91667 -0.33229,0.33229 -0.56864,-0.25834 -0.52522,-1.3125 z M 400.87244,387.25 c -1.24387,-1.58606 -1.2085,-1.62143 0.37756,-0.37756 0.9625,0.75485 1.75,1.54235 1.75,1.75 0,0.82304 -0.82119,0.29331 -2.12756,-1.37244 z m -116.60341,-3.94299 c 0.97297,-0.25354 2.32297,-0.23687 3,0.0371 0.67703,0.27393 -0.11903,0.48137 -1.76903,0.46099 -1.65,-0.0204 -2.20394,-0.2445 -1.23097,-0.49804 z M 313,383.62244 c 0,-0.20765 0.7875,-0.99515 1.75,-1.75 1.58606,-1.24387 1.62143,-1.2085 0.37756,0.37756 C 313.82119,383.91575 313,384.44548 313,383.62244 Z m 110.76166,-0.3297 c 1.24391,-0.23919 3.04391,-0.23011 4,0.0202 0.95609,0.25029 -0.0617,0.446 -2.26166,0.4349 -2.2,-0.0111 -2.98225,-0.21589 -1.73834,-0.45508 z M 271.8125,382.31689 c 0.72187,-0.28887 1.58438,-0.25335 1.91667,0.0789 0.33229,0.33229 -0.25834,0.56864 -1.3125,0.52522 -1.16495,-0.048 -1.4019,-0.28494 -0.60417,-0.60416 z M 385,372.5 c -4.09747,-4.125 -7.22494,-7.5 -6.94994,-7.5 0.275,0 3.85247,3.375 7.94994,7.5 4.09747,4.125 7.22494,7.5 6.94994,7.5 -0.275,0 -3.85247,-3.375 -7.94994,-7.5 z m 66.73121,3.41984 c 0.35361,-1.3522 0.8069,-1.8055 1.05655,-1.05655 0.24048,0.72144 -0.0382,1.78716 -0.61931,2.36826 -0.74207,0.74207 -0.87221,0.35164 -0.43724,-1.31171 z M 328,369.5 c 3.54322,-3.575 6.66722,-6.5 6.94222,-6.5 0.275,0 -2.399,2.925 -5.94222,6.5 -3.54322,3.575 -6.66722,6.5 -6.94222,6.5 -0.275,0 2.399,-2.925 5.94222,-6.5 z m 103,-1 c 1.86578,-1.925 3.61733,-3.5 3.89233,-3.5 0.275,0 -1.02655,1.575 -2.89233,3.5 -1.86578,1.925 -3.61733,3.5 -3.89233,3.5 -0.275,0 1.02655,-1.575 2.89233,-3.5 z M 276.43709,366.75 273.5,363.5 l 3.25,2.93709 c 1.7875,1.6154 3.25,3.0779 3.25,3.25 0,0.77256 -0.82513,0.0924 -3.56291,-2.93709 z m 162.25831,-9.23744 c 0.91468,-1.9181 1.84058,-3.30991 2.05756,-3.09293 0.45746,0.45746 -2.5782,6.58037 -3.26246,6.58037 -0.25198,0 0.29023,-1.56935 1.2049,-3.48744 z M 285.92431,357.25 283.5,354.5 l 2.75,2.42431 c 2.57029,2.26589 3.20859,3.07569 2.42431,3.07569 -0.17912,0 -1.41662,-1.2375 -2.75,-2.75 z M 338,358.62244 c 0,-0.20765 0.7875,-0.99515 1.75,-1.75 1.58606,-1.24387 1.62143,-1.2085 0.37756,0.37756 C 338.82119,358.91575 338,359.44548 338,358.62244 Z m 5,0 c 0,-0.20765 0.7875,-0.99515 1.75,-1.75 1.58606,-1.24387 1.62143,-1.2085 0.37756,0.37756 C 343.82119,358.91575 343,359.44548 343,358.62244 Z M 363.92431,356.25 361.5,353.5 l 2.75,2.42431 c 2.57029,2.26589 3.20859,3.07569 2.42431,3.07569 -0.17912,0 -1.41662,-1.2375 -2.75,-2.75 z m 5.94813,0 c -1.24387,-1.58606 -1.2085,-1.62143 0.37756,-0.37756 0.9625,0.75485 1.75,1.54235 1.75,1.75 0,0.82304 -0.82119,0.29331 -2.12756,-1.37244 z m 17,0 c -1.24387,-1.58606 -1.2085,-1.62143 0.37756,-0.37756 0.9625,0.75485 1.75,1.54235 1.75,1.75 0,0.82304 -0.82119,0.29331 -2.12756,-1.37244 z M 324,355.62244 c 0,-0.20765 0.7875,-0.99515 1.75,-1.75 1.58606,-1.24387 1.62143,-1.2085 0.37756,0.37756 C 324.82119,355.91575 324,356.44548 324,355.62244 Z m 101.56429,-1.91557 c 0.37553,-0.98622 0.93469,-1.54122 1.24258,-1.23333 0.30789,0.30789 6.4e-4,1.11479 -0.68278,1.79313 -0.98762,0.98026 -1.10248,0.8654 -0.5598,-0.5598 z M 296.8125,352.31689 c 0.72187,-0.28887 1.58438,-0.25335 1.91667,0.0789 0.33229,0.33229 -0.25834,0.56864 -1.3125,0.52522 -1.16495,-0.048 -1.4019,-0.28494 -0.60417,-0.60416 z m 84.85417,0.0164 C 380.73453,351.4012 380.83462,350 381.83333,350 c 0.45834,0 0.83334,0.675 0.83334,1.5 0,1.69935 -0.0731,1.76025 -1,0.83333 z m 21.08333,-0.0391 c 1.2375,-0.23836 3.2625,-0.23836 4.5,0 1.2375,0.23835 0.225,0.43337 -2.25,0.43337 -2.475,0 -3.4875,-0.19502 -2.25,-0.43337 z m -15,-0.95655 c 0.6875,-0.27741 1.8125,-0.27741 2.5,0 0.6875,0.27741 0.125,0.50439 -1.25,0.50439 -1.375,0 -1.9375,-0.22698 -1.25,-0.50439 z M 328.5,350 c -0.33992,-0.55 -0.14148,-1 0.44098,-1 0.58246,0 1.05902,0.45 1.05902,1 0,0.55 -0.19844,1 -0.44098,1 -0.24254,0 -0.7191,-0.45 -1.05902,-1 z M 248,346.62244 c 0,-0.20765 0.7875,-0.99515 1.75,-1.75 1.58606,-1.24387 1.62143,-1.2085 0.37756,0.37756 C 248.82119,346.91575 248,347.44548 248,346.62244 Z m 116,-8 c 0,-0.20765 0.7875,-0.99515 1.75,-1.75 1.58606,-1.24387 1.62143,-1.2085 0.37756,0.37756 C 364.82119,338.91575 364,339.44548 364,338.62244 Z m -62.25,-1.28472 c 0.6875,-0.27741 1.8125,-0.27741 2.5,0 0.6875,0.27741 0.125,0.50439 -1.25,0.50439 -1.375,0 -1.9375,-0.22698 -1.25,-0.50439 z m 94.5,-0.054 c 1.5125,-0.22913 3.9875,-0.22913 5.5,0 1.5125,0.22912 0.275,0.41659 -2.75,0.41659 -3.025,0 -4.2625,-0.18747 -2.75,-0.41659 z M 233.40918,320.5 c -0.001,-9.35 0.14916,-13.3096 0.33401,-8.7991 0.18486,4.51049 0.1858,12.16049 0.002,17 -0.1837,4.8395 -0.33495,1.1491 -0.3361,-8.2009 z M 392.5,330 c 2.14824,-2.2 4.1309,-4 4.4059,-4 0.275,0 -1.25766,1.8 -3.4059,4 -2.14824,2.2 -4.1309,4 -4.4059,4 -0.275,0 1.25766,-1.8 3.4059,-4 z m 32.57895,0.41667 c 0.048,-1.16495 0.28494,-1.4019 0.60416,-0.60417 0.28887,0.72187 0.25335,1.58438 -0.0789,1.91667 -0.33229,0.33229 -0.56864,-0.25834 -0.52522,-1.3125 z M 283.15789,328 c 0,-1.375 0.22698,-1.9375 0.50439,-1.25 0.27741,0.6875 0.27741,1.8125 0,2.5 -0.27741,0.6875 -0.50439,0.125 -0.50439,-1.25 z m 44.82236,-7.75 -9.48025,-9.75 9.75,9.48025 c 5.3625,5.21414 9.75,9.60164 9.75,9.75 0,0.72464 -1.21459,-0.42455 -10.01975,-9.48025 z M 377.5,324 c 3.26557,-3.3 6.16239,-6 6.43739,-6 0.275,0 -2.17182,2.7 -5.43739,6 -3.26557,3.3 -6.16239,6 -6.43739,6 -0.275,0 2.17182,-2.7 5.43739,-6 z m -65.09501,1.75 -1.90499,-2.25 2.25,1.90499 c 2.11444,1.79022 2.70524,2.59501 1.90499,2.59501 -0.18976,0 -1.20226,-1.0125 -2.25,-2.25 z m 40.46745,0.5 c -1.24387,-1.58606 -1.2085,-1.62143 0.37756,-0.37756 0.9625,0.75485 1.75,1.54235 1.75,1.75 0,0.82304 -0.82119,0.29331 -2.12756,-1.37244 z m 107,-1 c -1.24387,-1.58606 -1.2085,-1.62143 0.37756,-0.37756 1.66575,1.30637 2.19548,2.12756 1.37244,2.12756 -0.20765,0 -0.99515,-0.7875 -1.75,-1.75 z M 255,320.5 c 2.98742,-3.025 5.65668,-5.5 5.93168,-5.5 0.275,0 -1.94426,2.475 -4.93168,5.5 -2.98742,3.025 -5.65668,5.5 -5.93168,5.5 -0.275,0 1.94426,-2.475 4.93168,-5.5 z m 170.19495,3 c 0.0204,-1.65 0.2445,-2.20394 0.49804,-1.23097 0.25354,0.97297 0.23687,2.32297 -0.0371,3 -0.27393,0.67703 -0.48137,-0.11903 -0.46099,-1.76903 z m 52.14786,-7 c 0.004,-4.4 0.17944,-6.07561 0.39069,-3.72357 0.21124,2.35204 0.20827,5.95204 -0.007,8 -0.21487,2.04796 -0.38771,0.12357 -0.38408,-4.27643 z m -170.47037,4.75 c -1.24387,-1.58606 -1.2085,-1.62143 0.37756,-0.37756 1.66575,1.30637 2.19548,2.12756 1.37244,2.12756 -0.20765,0 -0.99515,-0.7875 -1.75,-1.75 z m 37,-2 c -1.24387,-1.58606 -1.2085,-1.62143 0.37756,-0.37756 1.66575,1.30637 2.19548,2.12756 1.37244,2.12756 -0.20765,0 -0.99515,-0.7875 -1.75,-1.75 z M 421.75,317.33772 c 0.6875,-0.27741 1.8125,-0.27741 2.5,0 0.6875,0.27741 0.125,0.50439 -1.25,0.50439 -1.375,0 -1.9375,-0.22698 -1.25,-0.50439 z m -131.98834,-1.04498 c 1.24391,-0.23919 3.04391,-0.23011 4,0.0202 0.95609,0.25029 -0.0617,0.446 -2.26166,0.4349 -2.2,-0.0111 -2.98225,-0.21589 -1.73834,-0.45508 z M 447.87244,314.25 c -1.24387,-1.58606 -1.2085,-1.62143 0.37756,-0.37756 1.66575,1.30637 2.19548,2.12756 1.37244,2.12756 -0.20765,0 -0.99515,-0.7875 -1.75,-1.75 z M 246.25218,310.5 c 0.0111,-2.2 0.21589,-2.98225 0.45508,-1.73834 0.23919,1.24391 0.23011,3.04391 -0.0202,4 -0.25029,0.95609 -0.446,-0.0617 -0.4349,-2.26166 z m 48.01685,-9.19299 c 0.97297,-0.25354 2.32297,-0.23687 3,0.0371 0.67703,0.27393 -0.11903,0.48137 -1.76903,0.46099 -1.65,-0.0204 -2.20394,-0.2445 -1.23097,-0.49804 z M 364,299.55902 c 0,-0.79254 0.40803,-1.69316 0.90674,-2.00138 0.49871,-0.30822 0.67122,0.34022 0.38337,1.44098 C 364.6795,301.33361 364,301.62877 364,299.55902 Z M 246.27236,296 c 0,-2.475 0.19502,-3.4875 0.43337,-2.25 0.23836,1.2375 0.23836,3.2625 0,4.5 -0.23835,1.2375 -0.43337,0.225 -0.43337,-2.25 z m 64.60008,-0.75 c -1.24387,-1.58606 -1.2085,-1.62143 0.37756,-0.37756 1.66575,1.30637 2.19548,2.12756 1.37244,2.12756 -0.20765,0 -0.99515,-0.7875 -1.75,-1.75 z M 366,295.62244 c 0,-0.20765 0.7875,-0.99515 1.75,-1.75 1.58606,-1.24387 1.62143,-1.2085 0.37756,0.37756 C 366.82119,295.91575 366,296.44548 366,295.62244 Z M 305.87244,291.25 c -1.24387,-1.58606 -1.2085,-1.62143 0.37756,-0.37756 1.66575,1.30637 2.19548,2.12756 1.37244,2.12756 -0.20765,0 -0.99515,-0.7875 -1.75,-1.75 z m 170.20651,-1.83333 c 0.048,-1.16495 0.28494,-1.4019 0.60416,-0.60417 0.28887,0.72187 0.25335,1.58438 -0.0789,1.91667 -0.33229,0.33229 -0.56864,-0.25834 -0.52522,-1.3125 z M 298.92431,285.25 296.5,282.5 l 2.75,2.42431 c 2.57029,2.26589 3.20859,3.07569 2.42431,3.07569 -0.17912,0 -1.41662,-1.2375 -2.75,-2.75 z M 233.29966,282 c 0,-3.025 0.18747,-4.2625 0.41659,-2.75 0.22913,1.5125 0.22913,3.9875 0,5.5 -0.22912,1.5125 -0.41659,0.275 -0.41659,-2.75 z m 100.10533,2.75 -1.90499,-2.25 2.25,1.90499 c 2.11444,1.79022 2.70524,2.59501 1.90499,2.59501 -0.18976,0 -1.20226,-1.0125 -2.25,-2.25 z M 410,286.62244 c 0,-0.20765 0.7875,-0.99515 1.75,-1.75 1.58606,-1.24387 1.62143,-1.2085 0.37756,0.37756 C 410.82119,286.91575 410,287.44548 410,286.62244 Z m -33,-2 c 0,-0.20765 0.7875,-0.99515 1.75,-1.75 1.58606,-1.24387 1.62143,-1.2085 0.37756,0.37756 C 377.82119,284.91575 377,285.44548 377,284.62244 Z m -129.92105,-3.20577 c 0.048,-1.16495 0.28494,-1.4019 0.60416,-0.60417 0.28887,0.72187 0.25335,1.58438 -0.0789,1.91667 -0.3323,0.33229 -0.56864,-0.25834 -0.52522,-1.3125 z M 315.87244,280.25 c -1.24387,-1.58606 -1.2085,-1.62143 0.37756,-0.37756 1.66575,1.30637 2.19548,2.12756 1.37244,2.12756 -0.20765,0 -0.99515,-0.7875 -1.75,-1.75 z M 395,279.62244 c 0,-0.20765 0.7875,-0.99515 1.75,-1.75 1.58606,-1.24387 1.62143,-1.2085 0.37756,0.37756 C 395.82119,279.91575 395,280.44548 395,279.62244 Z m 24,-0.93535 c 0,-0.1721 1.4625,-1.6346 3.25,-3.25 l 3.25,-2.93709 -2.93709,3.25 C 419.82513,278.77946 419,279.45965 419,278.68709 Z M 309.40499,274.75 307.5,272.5 l 2.25,1.90499 c 2.11444,1.79022 2.70524,2.59501 1.90499,2.59501 -0.18976,0 -1.20226,-1.0125 -2.25,-2.25 z m 9.46745,-1.5 c -1.24387,-1.58606 -1.2085,-1.62143 0.37756,-0.37756 1.66575,1.30637 2.19548,2.12756 1.37244,2.12756 -0.20765,0 -0.99515,-0.7875 -1.75,-1.75 z m 34.39659,-0.94299 c 0.97297,-0.25354 2.32297,-0.23687 3,0.0371 0.67703,0.27393 -0.11903,0.48137 -1.76903,0.46099 -1.65,-0.0204 -2.20394,-0.2445 -1.23097,-0.49804 z M 372.5,264 c 4.92707,-4.95 9.1833,-9 9.4583,-9 0.275,0 -3.53123,4.05 -8.4583,9 -4.92707,4.95 -9.1833,9 -9.4583,9 -0.275,0 3.53123,-4.05 8.4583,-9 z m 36.5,2.5 c 3.54322,-3.575 6.66722,-6.5 6.94222,-6.5 0.275,0 -2.399,2.925 -5.94222,6.5 -3.54322,3.575 -6.66722,6.5 -6.94222,6.5 -0.275,0 2.399,-2.925 5.94222,-6.5 z m -174.92105,2.91667 c 0.048,-1.16495 0.28494,-1.4019 0.60416,-0.60417 0.28887,0.72187 0.25335,1.58438 -0.0789,1.91667 -0.3323,0.33229 -0.56864,-0.25834 -0.52522,-1.3125 z M 313.87244,269.25 c -1.24387,-1.58606 -1.2085,-1.62143 0.37756,-0.37756 0.9625,0.75485 1.75,1.54235 1.75,1.75 0,0.82304 -0.82119,0.29331 -2.12756,-1.37244 z m 29,0 c -1.24387,-1.58606 -1.2085,-1.62143 0.37756,-0.37756 0.9625,0.75485 1.75,1.54235 1.75,1.75 0,0.82304 -0.82119,0.29331 -2.12756,-1.37244 z m -63,-3 c -1.24387,-1.58606 -1.2085,-1.62143 0.37756,-0.37756 1.66575,1.30637 2.19548,2.12756 1.37244,2.12756 -0.20765,0 -0.99515,-0.7875 -1.75,-1.75 z M 429,267.62244 c 0,-0.20765 0.7875,-0.99515 1.75,-1.75 1.58606,-1.24387 1.62143,-1.2085 0.37756,0.37756 C 429.82119,267.91575 429,268.44548 429,267.62244 Z M 305.43709,261.75 302.5,258.5 l 3.25,2.93709 c 3.02946,2.73778 3.70965,3.56291 2.93709,3.56291 -0.1721,0 -1.6346,-1.4625 -3.25,-3.25 z M 405,261.5 c 1.29175,-1.375 2.57363,-2.5 2.84863,-2.5 0.275,0 -0.55688,1.125 -1.84863,2.5 -1.29175,1.375 -2.57363,2.5 -2.84863,2.5 -0.275,0 0.55688,-1.125 1.84863,-2.5 z m 29,-0.5 c 0.5887,-1.1 1.29537,-2 1.57037,-2 0.275,0 0.0183,0.9 -0.57037,2 -0.5887,1.1 -1.29537,2 -1.57037,2 -0.275,0 -0.0183,-0.9 0.57037,-2 z m -141.12756,-2.75 c -1.24387,-1.58606 -1.2085,-1.62143 0.37756,-0.37756 1.66575,1.30637 2.19548,2.12756 1.37244,2.12756 -0.20765,0 -0.99515,-0.7875 -1.75,-1.75 z m 37.53255,-1.5 -1.90499,-2.25 2.25,1.90499 c 2.11444,1.79022 2.70524,2.59501 1.90499,2.59501 -0.18976,0 -1.20226,-1.0125 -2.25,-2.25 z M 417,257.62244 c 0,-0.20765 0.7875,-0.99515 1.75,-1.75 1.58606,-1.24387 1.62143,-1.2085 0.37756,0.37756 C 417.82119,257.91575 417,258.44548 417,257.62244 Z m -7,-2 c 0,-0.20765 0.7875,-0.99515 1.75,-1.75 1.58606,-1.24387 1.62143,-1.2085 0.37756,0.37756 C 410.82119,255.91575 410,256.44548 410,255.62244 Z M 314.40499,251.75 312.5,249.5 l 2.25,1.90499 c 2.11444,1.79022 2.70524,2.59501 1.90499,2.59501 -0.18976,0 -1.20226,-1.0125 -2.25,-2.25 z m 44.40751,1.56689 c 0.72187,-0.28887 1.58438,-0.25335 1.91667,0.0789 0.33229,0.33229 -0.25834,0.56864 -1.3125,0.52522 -1.16495,-0.048 -1.4019,-0.28494 -0.60417,-0.60416 z M 324.87244,250.25 c -1.24387,-1.58606 -1.2085,-1.62143 0.37756,-0.37756 1.66575,1.30637 2.19548,2.12756 1.37244,2.12756 -0.20765,0 -0.99515,-0.7875 -1.75,-1.75 z M 424,248 c 0.5887,-1.1 1.29537,-2 1.57037,-2 0.275,0 0.0183,0.9 -0.57037,2 -0.5887,1.1 -1.29537,2 -1.57037,2 -0.275,0 -0.0183,-0.9 0.57037,-2 z m -25.43571,-0.29313 c 0.37553,-0.98622 0.93469,-1.54122 1.24258,-1.23333 0.30789,0.30789 6.4e-4,1.11479 -0.68278,1.79313 -0.98762,0.98026 -1.10248,0.8654 -0.5598,-0.5598 z M 388,247.62244 c 0,-0.20765 0.7875,-0.99515 1.75,-1.75 1.58606,-1.24387 1.62143,-1.2085 0.37756,0.37756 C 388.82119,247.91575 388,248.44548 388,247.62244 Z M 319.87244,245.25 c -1.24387,-1.58606 -1.2085,-1.62143 0.37756,-0.37756 1.66575,1.30637 2.19548,2.12756 1.37244,2.12756 -0.20765,0 -0.99515,-0.7875 -1.75,-1.75 z M 310,244.55902 c 0,-0.79254 0.40803,-1.69316 0.90674,-2.00138 0.49871,-0.30822 0.67122,0.34022 0.38337,1.44098 C 310.6795,246.33361 310,246.62877 310,244.55902 Z m 106.07895,-3.14235 c 0.048,-1.16495 0.28494,-1.4019 0.60416,-0.60417 0.28887,0.72187 0.25335,1.58437 -0.0789,1.91667 -0.33229,0.33229 -0.56864,-0.25834 -0.52522,-1.3125 z M 325.232,224 c 0,-1.925 0.2058,-2.7125 0.45733,-1.75 0.25152,0.9625 0.25152,2.5375 0,3.5 -0.25153,0.9625 -0.45733,0.175 -0.45733,-1.75 z m 132.17299,-1.25 -1.90499,-2.25 2.25,1.90499 c 1.2375,1.04774 2.25,2.06024 2.25,2.25 0,0.80025 -0.80479,0.20945 -2.59501,-1.90499 z m -183.32604,-4.33333 c 0.048,-1.16495 0.28494,-1.4019 0.60416,-0.60417 0.28887,0.72187 0.25335,1.58437 -0.0789,1.91667 -0.33229,0.33229 -0.56864,-0.25834 -0.52522,-1.3125 z M 345.15789,218 c 0,-1.375 0.22698,-1.9375 0.50439,-1.25 0.27741,0.6875 0.27741,1.8125 0,2.5 -0.27741,0.6875 -0.50439,0.125 -0.50439,-1.25 z m 40.03706,-1.5 c 0.0204,-1.65 0.2445,-2.20394 0.49804,-1.23097 0.25354,0.97297 0.23687,2.32297 -0.0371,3 -0.27393,0.67703 -0.48137,-0.11903 -0.46099,-1.76903 z M 325.32007,212 c 0,-3.575 0.1815,-5.0375 0.40333,-3.25 0.22182,1.7875 0.22182,4.7125 0,6.5 -0.22183,1.7875 -0.40333,0.325 -0.40333,-3.25 z m 47.83782,1 c 0,-1.375 0.22698,-1.9375 0.50439,-1.25 0.27741,0.6875 0.27741,1.8125 0,2.5 -0.27741,0.6875 -0.50439,0.125 -0.50439,-1.25 z m -36.85823,-7 c 0,-3.025 0.18747,-4.2625 0.41659,-2.75 0.22913,1.5125 0.22913,3.9875 0,5.5 -0.22912,1.5125 -0.41659,0.275 -0.41659,-2.75 z m 108.13743,-1.25 -2.93709,-3.25 3.25,2.93709 c 3.02946,2.73778 3.70965,3.56291 2.93709,3.56291 -0.1721,0 -1.6346,-1.4625 -3.25,-3.25 z M 373.15789,202 c 0,-1.375 0.22698,-1.9375 0.50439,-1.25 0.27741,0.6875 0.27741,1.8125 0,2.5 -0.27741,0.6875 -0.50439,0.125 -0.50439,-1.25 z m 65.71455,-1.75 c -1.24387,-1.58606 -1.2085,-1.62143 0.37756,-0.37756 0.9625,0.75485 1.75,1.54235 1.75,1.75 0,0.82304 -0.82119,0.29331 -2.12756,-1.37244 z M 426,193.5 c -1.375,-0.78602 -2.05,-1.42913 -1.5,-1.42913 0.55,0 2.125,0.64311 3.5,1.42913 1.375,0.78602 2.05,1.42913 1.5,1.42913 -0.55,0 -2.125,-0.64311 -3.5,-1.42913 z M 358.5,184 c 0.99549,-1.1 2.03498,-2 2.30998,-2 0.275,0 -0.31449,0.9 -1.30998,2 -0.99549,1.1 -2.03498,2 -2.30998,2 -0.275,0 0.31449,-0.9 1.30998,-2 z m -23.23097,-3.69299 c 0.97297,-0.25354 2.32297,-0.23687 3,0.0371 0.67703,0.27393 -0.11903,0.48137 -1.76903,0.46099 -1.65,-0.0204 -2.20394,-0.2445 -1.23097,-0.49804 z"
         id="path2184" />
      <path
         style="fill:#404040"
         d="m 334.75,518.33772 c 0.6875,-0.27741 1.8125,-0.27741 2.5,0 0.6875,0.27741 0.125,0.50439 -1.25,0.50439 -1.375,0 -1.9375,-0.22698 -1.25,-0.50439 z m 35.5,-0.0271 c 0.9625,-0.25152 2.5375,-0.25152 3.5,0 0.9625,0.25153 0.175,0.45733 -1.75,0.45733 -1.925,0 -2.7125,-0.2058 -1.75,-0.45733 z m 8.5625,-13.99378 c 0.72187,-0.28887 1.58438,-0.25335 1.91667,0.0789 0.33229,0.33229 -0.25834,0.56864 -1.3125,0.52522 -1.16495,-0.048 -1.4019,-0.28494 -0.60417,-0.60416 z m -27,-26 c 0.72187,-0.28887 1.58438,-0.25335 1.91667,0.0789 0.33229,0.33229 -0.25834,0.56864 -1.3125,0.52522 -1.16495,-0.048 -1.4019,-0.28494 -0.60417,-0.60416 z M 260.40499,441.75 258.5,439.5 l 2.25,1.90499 c 1.2375,1.04774 2.25,2.06024 2.25,2.25 0,0.80025 -0.80479,0.20945 -2.59501,-1.90499 z m 88.40751,0.56689 c 0.72187,-0.28887 1.58438,-0.25335 1.91667,0.0789 0.33229,0.33229 -0.25834,0.56864 -1.3125,0.52522 -1.16495,-0.048 -1.4019,-0.28494 -0.60417,-0.60416 z M 398.5,435 c 0.33992,-0.55 0.81648,-1 1.05902,-1 0.24254,0 0.44098,0.45 0.44098,1 0,0.55 -0.47656,1 -1.05902,1 -0.58246,0 -0.7809,-0.45 -0.44098,-1 z m 37.5,0.68709 c 0,-0.1721 1.4625,-1.6346 3.25,-3.25 l 3.25,-2.93709 -2.93709,3.25 C 436.82513,435.77946 436,436.45965 436,435.68709 Z m -122,-6.06465 c 0,-0.20765 0.7875,-0.99515 1.75,-1.75 1.58606,-1.24387 1.62143,-1.2085 0.37756,0.37756 C 314.82119,429.91575 314,430.44548 314,429.62244 Z m 30.8125,-8.30555 c 0.72187,-0.28887 1.58438,-0.25335 1.91667,0.0789 0.33229,0.33229 -0.25834,0.56864 -1.3125,0.52522 -1.16495,-0.048 -1.4019,-0.28494 -0.60417,-0.60416 z m 12.9375,0.0208 c 0.6875,-0.27741 1.8125,-0.27741 2.5,0 0.6875,0.27741 0.125,0.50439 -1.25,0.50439 -1.375,0 -1.9375,-0.22698 -1.25,-0.50439 z m 90.32895,-13.92105 c 0.048,-1.16495 0.28494,-1.4019 0.60416,-0.60417 0.28887,0.72187 0.25335,1.58438 -0.0789,1.91667 -0.33229,0.33229 -0.56864,-0.25834 -0.52522,-1.3125 z M 379.15789,400 c 0,-1.375 0.22698,-1.9375 0.50439,-1.25 0.27741,0.6875 0.27741,1.8125 0,2.5 -0.27741,0.6875 -0.50439,0.125 -0.50439,-1.25 z m 82,-2 c 0,-1.375 0.22698,-1.9375 0.50439,-1.25 0.27741,0.6875 0.27741,1.8125 0,2.5 -0.27741,0.6875 -0.50439,0.125 -0.50439,-1.25 z m -0.0789,-5.58333 c 0.048,-1.16495 0.28494,-1.4019 0.60416,-0.60417 0.28887,0.72187 0.25335,1.58438 -0.0789,1.91667 -0.33229,0.33229 -0.56864,-0.25834 -0.52522,-1.3125 z m -130,-1 c 0.048,-1.16495 0.28494,-1.4019 0.60416,-0.60417 0.28887,0.72187 0.25335,1.58438 -0.0789,1.91667 -0.33229,0.33229 -0.56864,-0.25834 -0.52522,-1.3125 z m 47,-4 c 0.048,-1.16495 0.28494,-1.4019 0.60416,-0.60417 0.28887,0.72187 0.25335,1.58438 -0.0789,1.91667 -0.33229,0.33229 -0.56864,-0.25834 -0.52522,-1.3125 z M 279.75,383.33772 c 0.6875,-0.27741 1.8125,-0.27741 2.5,0 0.6875,0.27741 0.125,0.50439 -1.25,0.50439 -1.375,0 -1.9375,-0.22698 -1.25,-0.50439 z m 9.0625,-0.0208 c 0.72187,-0.28887 1.58438,-0.25335 1.91667,0.0789 0.33229,0.33229 -0.25834,0.56864 -1.3125,0.52522 -1.16495,-0.048 -1.4019,-0.28494 -0.60417,-0.60416 z m 141,0 c 0.72187,-0.28887 1.58438,-0.25335 1.91667,0.0789 0.33229,0.33229 -0.25834,0.56864 -1.3125,0.52522 -1.16495,-0.048 -1.4019,-0.28494 -0.60417,-0.60416 z M 316,380.62244 c 0,-0.20765 0.7875,-0.99515 1.75,-1.75 1.58606,-1.24387 1.62143,-1.2085 0.37756,0.37756 C 316.82119,380.91575 316,381.44548 316,380.62244 Z M 356.87244,370.25 c -1.24387,-1.58606 -1.2085,-1.62143 0.37756,-0.37756 0.9625,0.75485 1.75,1.54235 1.75,1.75 0,0.82304 -0.82119,0.29331 -2.12756,-1.37244 z m 16,-11 c -1.24387,-1.58606 -1.2085,-1.62143 0.37756,-0.37756 1.66575,1.30637 2.19548,2.12756 1.37244,2.12756 -0.20765,0 -0.99515,-0.7875 -1.75,-1.75 z M 299.75,352.33772 c 0.6875,-0.27741 1.8125,-0.27741 2.5,0 0.6875,0.27741 0.125,0.50439 -1.25,0.50439 -1.375,0 -1.9375,-0.22698 -1.25,-0.50439 z m 12.51903,-0.0307 c 0.97297,-0.25354 2.32297,-0.23687 3,0.0371 0.67703,0.27393 -0.11903,0.48137 -1.76903,0.46099 -1.65,-0.0204 -2.20394,-0.2445 -1.23097,-0.49804 z m 98.49263,-0.0143 c 1.24391,-0.23919 3.04391,-0.23011 4,0.0202 0.95609,0.25029 -0.0617,0.446 -2.26166,0.4349 -2.2,-0.0111 -2.98225,-0.21589 -1.73834,-0.45508 z m -176.68271,-4.87607 c 0.048,-1.16495 0.28494,-1.4019 0.60416,-0.60417 0.28887,0.72187 0.25335,1.58438 -0.0789,1.91667 -0.3323,0.33229 -0.56864,-0.25834 -0.52522,-1.3125 z m 112,-4 c 0.048,-1.16495 0.28494,-1.4019 0.60416,-0.60417 0.28887,0.72187 0.25335,1.58438 -0.0789,1.91667 -0.33229,0.33229 -0.56864,-0.25834 -0.52522,-1.3125 z M 263,339 c -0.90129,-0.58246 -1.02463,-0.97549 -0.30902,-0.98469 0.65504,-0.008 1.4691,0.43469 1.80902,0.98469 0.7673,1.24153 0.42112,1.24153 -1.5,0 z m 141.8125,-1.68311 c 0.72187,-0.28887 1.58438,-0.25335 1.91667,0.0789 0.33229,0.33229 -0.25834,0.56864 -1.3125,0.52522 -1.16495,-0.048 -1.4019,-0.28494 -0.60417,-0.60416 z M 425.15789,319 c 0,-1.375 0.22698,-1.9375 0.50439,-1.25 0.27741,0.6875 0.27741,1.8125 0,2.5 -0.27741,0.6875 -0.50439,0.125 -0.50439,-1.25 z m 25.71455,-1.75 c -1.24387,-1.58606 -1.2085,-1.62143 0.37756,-0.37756 0.9625,0.75485 1.75,1.54235 1.75,1.75 0,0.82304 -0.82119,0.29331 -2.12756,-1.37244 z M 246.15789,316 c 0,-1.375 0.22698,-1.9375 0.50439,-1.25 0.27741,0.6875 0.27741,1.8125 0,2.5 -0.27741,0.6875 -0.50439,0.125 -0.50439,-1.25 z m 217.22387,-10.5 c 0.002,-6.6 0.16382,-9.16987 0.35965,-5.71081 0.19583,3.45905 0.19422,8.85905 -0.004,12 -0.19781,3.14094 -0.35803,0.31081 -0.35606,-6.28919 z M 390,312.62244 c 0,-0.20765 0.7875,-0.99515 1.75,-1.75 1.58606,-1.24387 1.62143,-1.2085 0.37756,0.37756 C 390.82119,312.91575 390,313.44548 390,312.62244 Z M 233.35496,295.5 c -0.003,-4.95 0.16605,-7.10108 0.37577,-4.78017 0.20972,2.3209 0.21222,6.3709 0.006,9 C 233.5296,302.34892 233.358,300.45 233.35496,295.5 Z M 413.75,301.33772 c 0.6875,-0.27741 1.8125,-0.27741 2.5,0 0.6875,0.27741 0.125,0.50439 -1.25,0.50439 -1.375,0 -1.9375,-0.22698 -1.25,-0.50439 z M 476.19495,293.5 c 0.0204,-1.65 0.2445,-2.20394 0.49804,-1.23097 0.25354,0.97297 0.23687,2.32297 -0.0371,3 -0.27393,0.67703 -0.48137,-0.11903 -0.46099,-1.76903 z m -230.116,-3.08333 c 0.048,-1.16495 0.28494,-1.4019 0.60416,-0.60417 0.28887,0.72187 0.25335,1.58438 -0.0789,1.91667 -0.3323,0.33229 -0.56864,-0.25834 -0.52522,-1.3125 z M 475.15789,280 c 0,-1.375 0.22698,-1.9375 0.50439,-1.25 0.27741,0.6875 0.27741,1.8125 0,2.5 -0.27741,0.6875 -0.50439,0.125 -0.50439,-1.25 z m -13.07894,-0.58333 c 0.048,-1.16495 0.28494,-1.4019 0.60416,-0.60417 0.28887,0.72187 0.25335,1.58438 -0.0789,1.91667 -0.33229,0.33229 -0.56864,-0.25834 -0.52522,-1.3125 z M 400,275.62244 c 0,-0.20765 0.7875,-0.99515 1.75,-1.75 1.58606,-1.24387 1.62143,-1.2085 0.37756,0.37756 C 400.82119,275.91575 400,276.44548 400,275.62244 Z m -42.1875,-3.30555 c 0.72187,-0.28887 1.58438,-0.25335 1.91667,0.0789 0.33229,0.33229 -0.25834,0.56864 -1.3125,0.52522 -1.16495,-0.048 -1.4019,-0.28494 -0.60417,-0.60416 z m 116.26645,-1.90022 c 0.048,-1.16495 0.28494,-1.4019 0.60416,-0.60417 0.28887,0.72187 0.25335,1.58438 -0.0789,1.91667 -0.33229,0.33229 -0.56864,-0.25834 -0.52522,-1.3125 z M 282.87244,269.25 c -1.24387,-1.58606 -1.2085,-1.62143 0.37756,-0.37756 0.9625,0.75485 1.75,1.54235 1.75,1.75 0,0.82304 -0.82119,0.29331 -2.12756,-1.37244 z m 17.56465,-2.5 -2.93709,-3.25 3.25,2.93709 c 1.7875,1.6154 3.25,3.0779 3.25,3.25 0,0.77256 -0.82513,0.0924 -3.56291,-2.93709 z M 337,263.5 c -2.42903,-2.475 -4.19142,-4.5 -3.91642,-4.5 0.275,0 2.48739,2.025 4.91642,4.5 2.42903,2.475 4.19142,4.5 3.91642,4.5 -0.275,0 -2.48739,-2.025 -4.91642,-4.5 z m 48,-12.87756 c 0,-0.20765 0.7875,-0.99515 1.75,-1.75 1.58606,-1.24387 1.62143,-1.2085 0.37756,0.37756 C 385.82119,250.91575 385,251.44548 385,250.62244 Z M 384.15789,226 c 0,-1.375 0.22698,-1.9375 0.50439,-1.25 0.27741,0.6875 0.27741,1.8125 0,2.5 -0.27741,0.6875 -0.50439,0.125 -0.50439,-1.25 z M 251.5,224 c 0.99549,-1.1 2.03498,-2 2.30998,-2 0.275,0 -0.31449,0.9 -1.30998,2 -0.99549,1.1 -2.03498,2 -2.30998,2 -0.275,0 0.31449,-0.9 1.30998,-2 z m 112.65789,-6 c 0,-1.375 0.22698,-1.9375 0.50439,-1.25 0.27741,0.6875 0.27741,1.8125 0,2.5 -0.27741,0.6875 -0.50439,0.125 -0.50439,-1.25 z M 336.232,214 c 0,-1.925 0.2058,-2.7125 0.45733,-1.75 0.25152,0.9625 0.25152,2.5375 0,3.5 -0.25153,0.9625 -0.45733,0.175 -0.45733,-1.75 z m 49.08807,-6 c 0,-3.575 0.1815,-5.0375 0.40333,-3.25 0.22182,1.7875 0.22182,4.7125 0,6.5 -0.22183,1.7875 -0.40333,0.325 -0.40333,-3.25 z M 325.232,203 c 0,-1.925 0.2058,-2.7125 0.45733,-1.75 0.25152,0.9625 0.25152,2.5375 0,3.5 -0.25153,0.9625 -0.45733,0.175 -0.45733,-1.75 z m 10.84695,-3.58333 c 0.048,-1.16495 0.28494,-1.4019 0.60416,-0.60417 0.28887,0.72187 0.25335,1.58437 -0.0789,1.91667 -0.33229,0.33229 -0.56864,-0.25834 -0.52522,-1.3125 z M 318.8125,180.31689 c 0.72187,-0.28887 1.58438,-0.25335 1.91667,0.0789 0.33229,0.33229 -0.25834,0.56864 -1.3125,0.52522 -1.16495,-0.048 -1.4019,-0.28494 -0.60417,-0.60416 z m 11.9375,0.0208 c 0.6875,-0.27741 1.8125,-0.27741 2.5,0 0.6875,0.27741 0.125,0.50439 -1.25,0.50439 -1.375,0 -1.9375,-0.22698 -1.25,-0.50439 z"
         id="path2182" />
      <path
         style="fill:#000000"
         d="m 329.54648,518.3287 -8.95351,-0.4125 -5.72225,-5.4581 C 311.72349,509.45614 308.67965,507 308.10663,507 c -1.62315,0 -8.40693,-9.50679 -14.62823,-20.5 -11.77155,-20.80066 -28.80604,-42.6173 -38.54389,-49.36446 -2.98898,-2.071 -6.48684,-5.31122 -7.77301,-7.2005 -2.62963,-3.86269 -2.57691,-8.34459 0.25217,-21.43504 2.26043,-10.45926 2.01113,-18.35028 -0.81288,-25.7302 C 233.15988,347.645 233.79734,351.6357 234.25794,305.5 l 0.37937,-38 3.09083,-11 c 6.11717,-21.77051 8.78143,-27.0652 17.65097,-35.07786 3.9047,-3.52747 5.62089,-5.82285 5.62089,-7.51787 0,-3.76125 4.31555,-9.25549 10.48799,-13.35252 7.43716,-4.9365 23.7661,-12.59741 35.51201,-16.66086 8.34106,-2.88556 10.71994,-3.28095 19.5,-3.24107 15.91905,0.0723 21.35135,1.04768 24.74706,4.44339 1.59873,1.59874 3.08151,2.90679 3.29507,2.90679 0.21355,0 2.04376,-1.45353 4.06713,-3.23007 3.54436,-3.112 4.05048,-3.24383 13.84538,-3.60641 13.01563,-0.4818 22.19255,0.96941 36.64726,5.79529 24.16705,8.06847 37.47281,16.79837 40.8263,26.78614 1.26984,3.78199 2.7109,5.88352 5.16642,7.53433 9.11989,6.13115 16.67782,27.05046 19.95067,55.22072 1.837,15.81151 2.31107,52.35091 0.74576,57.47964 -1.00844,3.30414 -1.1208,5.83909 -0.42819,9.66026 0.85409,4.71202 0.61137,6.09282 -2.68336,15.26578 -1.9923,5.54684 -4.35103,12.89973 -5.24161,16.33975 -0.89058,3.44001 -2.76033,8.66826 -4.15501,11.61833 -2.22505,4.70654 -2.45395,6.16228 -1.86808,11.88065 0.36722,3.58429 1.32411,9.63751 2.12643,13.45161 3.00387,14.27986 1.89845,17.69764 -8.10594,25.06246 -11.40962,8.39928 -25.14961,25.98785 -36.9417,47.28908 -8.76651,15.83583 -12.88639,21.2236 -18.48568,24.17463 -2.47065,1.30213 -5.65453,3.48119 -7.07528,4.84235 -1.42075,1.36117 -4.12431,2.92077 -6.00791,3.46578 -3.72328,1.07731 -42.9231,1.96434 -57.37824,1.29838 z m 52.40137,-14.27531 c 1.14244,-0.72276 0.82603,-1.16111 -1.5,-2.0781 -1.62132,-0.63917 -8.18085,-3.66567 -14.57675,-6.72556 l -11.62889,-5.56343 -7.37111,4.02757 c -4.0541,2.21517 -10.1836,5.04605 -13.6211,6.29085 -6.37838,2.30975 -7.61408,3.49216 -4.5,4.30595 3.37769,0.88269 51.76587,0.64867 53.19785,-0.25728 z m -48.79882,-18.17933 c 20.81839,-9.76903 23.93336,-9.64784 48.22572,1.87626 9.90082,4.69687 14.2967,6.31591 15.34798,5.65278 0.81028,-0.51111 4.69165,-6.89126 8.62525,-14.17811 8.8006,-16.30273 24.55816,-37.12464 36.85632,-48.70161 l 8.9553,-8.43014 -1.66236,-9.75881 c -0.9143,-5.36735 -1.40804,-11.03045 -1.09719,-12.58468 0.79341,-3.96706 -1.15491,-4.39457 -9.99511,-2.19321 -6.49732,1.61795 -8.15292,1.68912 -13.51739,0.58111 -13.70089,-2.82988 -22.46489,-8.785 -40.9243,-27.80802 -16.86288,-17.37774 -21.70286,-24.24665 -20.48994,-29.07933 0.78789,-3.13917 29.74367,-32.2766 34.54272,-34.7594 4.88944,-2.52957 12.68262,-4.46664 17.98397,-4.47009 5.48308,-0.004 22.03967,5.56188 27.39564,9.20896 2.1426,1.45897 7.37752,5.81196 11.63315,9.6733 l 7.73751,7.02061 0.71656,-10.51289 c 1.88787,-27.69752 -3.86027,-65.38658 -12.13269,-79.55091 -2.96328,-5.07384 -4.09735,-4.64743 -7.45448,2.80288 -7.29702,16.19391 -10.09206,21.21758 -15.32847,27.55067 -7.3931,8.94147 -21.28272,20.9428 -36.55444,31.58487 -6.86797,4.78594 -17.44297,12.67568 -23.5,17.53277 -6.05703,4.8571 -11.58226,9.07042 -12.2783,9.36295 -0.69603,0.29253 -4.78645,-2.1919 -9.08981,-5.52094 -4.30336,-3.32905 -14.59951,-10.91737 -22.88034,-16.86295 -17.79038,-12.77336 -31.96599,-24.9467 -40.80561,-35.04193 -7.57595,-8.65207 -10.24711,-13.04465 -14.45363,-23.7682 -3.69553,-9.42089 -6.12512,-12.4752 -8.41311,-10.57634 -3.38371,2.80823 -9.9936,23.81943 -12.76486,40.57634 -1.33874,8.09491 -1.90576,51.75469 -0.68797,52.97248 0.33702,0.33702 3.48108,-2.39789 6.98681,-6.07758 8.47701,-8.89767 16.19885,-13.76003 27.78739,-17.4974 11.08612,-3.57535 16.73797,-3.54211 26.58665,0.15633 5.20653,1.9552 7.80482,4.05123 19.64755,15.84967 7.50616,7.47807 14.59198,15.1715 15.74626,17.0965 4.72954,7.88741 1.79161,13.4736 -16.82973,32.00006 -12.49524,12.43158 -23.58982,21.56044 -29.8341,24.54816 -1.79851,0.86054 -6.29851,2.2129 -10,3.00525 -5.98796,1.2818 -7.64809,1.26203 -15.05708,-0.17932 -4.8395,-0.94148 -8.69831,-1.24874 -9.21343,-0.73362 -0.48749,0.48749 -1.36181,5.15529 -1.94294,10.3729 -0.58113,5.21762 -1.31301,10.89757 -1.62639,12.62213 -0.47556,2.61702 -0.12297,3.4439 2.132,5 12.262,8.46174 30.93126,32.151 44.42021,56.36444 6.5625,11.78006 7.77792,13.21741 10.47543,12.3882 1.14522,-0.35204 8.67429,-3.7334 16.73125,-7.51414 z m 58.69376,-28.85649 c -11.52167,-8.61084 -17.36667,-11.45497 -27.94713,-13.59884 -15.39712,-3.11986 -24.08274,-0.74266 -42.24283,11.5616 C 314.81738,459.61164 308.77975,463 307.36277,463 302.09769,463 296,452.81592 296,444.02243 c 0,-6.35488 3.20111,-16.47344 7.04968,-22.28372 3.56086,-5.37591 9.29999,-9.85258 20.09803,-15.67697 l 7.59719,-4.09787 0.70332,-8.06275 c 1.36997,-15.70499 6.4519,-28.85387 14.11255,-36.51452 9.73938,-9.73938 18.23276,-5.6855 27.47416,13.1134 4.00856,8.15424 5.93948,16.57516 5.9618,26 l 0.0118,5 7.29448,3.74451 c 10.10676,5.18815 20.43032,13.89851 22.78703,19.22625 1.03532,2.3405 2.80568,8.14299 3.93414,12.89441 1.72049,7.24421 1.86724,9.32478 0.90893,12.88689 C 411.64971,458.73987 407.69335,464 403.59279,464 c -1.42107,0 -6.23454,-2.8604 -11.75,-6.98243 z M 400,435.08458 c 0,-1.71748 -12.4835,-13.18688 -19.37533,-17.80137 -6.16512,-4.12791 -7.21897,-5.33581 -10.20208,-11.69332 -1.82972,-3.89944 -4.9527,-12.68688 -6.93997,-19.52763 -4.08511,-14.06216 -4.75905,-15.60465 -7.44637,-17.04286 -3.24987,-1.73928 -4.20975,0.27551 -11.42467,23.9806 -3.79143,12.457 -8.20887,19.7369 -14.71074,24.24317 C 321.84766,422.82461 311,431.87043 311,433.0045 c 0,1.7477 2.88236,1.07791 8.26515,-1.92063 2.87917,-1.60387 9.28485,-4.38346 14.23485,-6.17688 8.1597,-2.95631 10.02704,-3.25657 20,-3.2159 14.90112,0.0608 20.58268,1.45323 33.75797,8.27363 C 399.32487,436.21133 400,436.48261 400,435.08458 Z M 292.77749,382.4433 C 293.99987,381.58711 295,380.52607 295,380.08543 c 0,-0.44064 -2.79225,-2.52463 -6.205,-4.6311 -12.57035,-7.75886 -14.46314,-10.30334 -20.98024,-28.2036 -1.65186,-4.5371 -3.4097,-8.50039 -3.90631,-8.80731 -1.21133,-0.74864 -12.39271,4.32921 -14.38816,6.53416 -1.45451,1.60722 -1.37121,2.32056 1.00862,8.63716 1.42675,3.7869 3.94833,10.79807 5.60353,15.5804 2.88699,8.34131 3.19428,8.78461 7.55164,10.89397 7.60766,3.68281 25.16787,5.10375 29.09341,2.35419 z m 151.42009,-1.42261 c 7.43914,-2.29771 8.27615,-3.04688 9.21268,-8.24586 0.36908,-2.04884 2.23033,-7.59296 4.13612,-12.32026 1.90578,-4.7273 3.57499,-10.01752 3.70934,-11.75603 0.23183,-2.99979 -0.13642,-3.35219 -7.22321,-6.91225 -4.10712,-2.06322 -7.84562,-3.37318 -8.3078,-2.911 -0.46217,0.46217 -1.52531,3.46347 -2.36253,6.66956 -3.60863,13.81895 -11.16284,24.10417 -20.98728,28.57465 -3.3688,1.53293 -6.3754,3.43941 -6.68132,4.23662 -0.61983,1.61526 1.0129,4.09366 3.30642,5.019 2.84015,1.14587 18.6467,-0.33107 25.19758,-2.35443 z M 318.6093,360.19489 c 12.70558,-9.47655 14.65636,-12.75887 5.73552,-9.65041 -6.9973,2.43821 -28.43717,2.4546 -33.5558,0.0256 -4.44728,-2.11037 -7.18844,-1.74938 -7.58349,0.9987 -0.64801,4.50767 6.91913,10.1738 19.29447,14.44737 5.78126,1.99643 5.48352,2.10402 16.1093,-5.8213 z m 95.42532,3.03924 C 421.67215,359.7778 427,354.9114 427,351.39169 c 0,-3.44203 -2.38194,-3.96797 -6.07168,-1.34065 -3.04181,2.16596 -3.6608,2.21748 -19.2855,1.60528 -8.87855,-0.34787 -17.49282,-0.89535 -19.14282,-1.21661 -2.96122,-0.57655 -2.94182,-0.53127 1.5,3.5026 2.475,2.24769 7.77592,6.31394 11.77982,9.03611 8.04994,5.473 6.76579,5.45501 18.2548,0.25571 z M 317.25,336.94742 c 2.0625,-0.57279 3.75,-1.64368 3.75,-2.37977 0,-1.91787 -12.32487,-13.18258 -17.0742,-15.6055 -2.20485,-1.12484 -6.86519,-2.31189 -10.3563,-2.63789 -5.90898,-0.55179 -6.45464,-0.42803 -7.89871,1.7915 -0.85317,1.31133 -1.85265,4.68307 -2.22107,7.49275 -0.58945,4.49537 -0.39896,5.36087 1.58708,7.21115 1.24131,1.15645 4.77833,2.61988 7.86006,3.25207 3.08173,0.63218 6.05314,1.28914 6.60314,1.4599 2.43,0.75446 14.34136,0.36242 17.75,-0.58421 z m 100.51456,-0.9832 C 425.19432,334.36074 426,333.23914 426,324.49954 v -7.3576 l -9.14826,-0.32097 -9.14827,-0.32097 -4.60173,3.92651 C 394.81018,327.50143 389,333.40076 389,334.74463 c 0,0.7259 1.0125,1.7592 2.25,2.29622 2.70842,1.17534 19.17887,0.50655 26.51456,-1.07663 z M 346,298.92576 c 0,-2.97412 -9.78762,-12.88339 -22,-22.27344 C 310.83876,266.53269 299.99169,255.84948 296.93889,250 c -4.38304,-8.39836 -2.28493,-21.74487 4.48215,-28.51195 3.01647,-3.01647 4.37849,-2.63216 14.48215,4.08632 10.35527,6.88579 10.37599,6.85865 9.94942,-13.03289 -0.24326,-11.34323 -0.73757,-16.82733 -1.59389,-17.68329 -1.6173,-1.61661 -8.18625,-0.006 -21.55211,5.28416 -20.59652,8.15208 -29.62259,14.29381 -28.33895,19.28307 1.69775,6.5988 7.79386,23.1007 10.09724,27.33277 6.99888,12.85923 28.17318,32.72667 52.84831,49.58653 7.65493,5.23041 8.68679,5.537 8.68679,2.58104 z m 29.02986,-3.94584 c 19.02251,-12.7907 38.84545,-30.64741 46.63701,-42.01108 4.43706,-6.47127 8.14744,-14.16798 9.73886,-20.20204 0.76399,-2.89674 2.37278,-7.7412 3.57509,-10.76547 l 2.18603,-5.49867 -3.33343,-2.82991 c -1.83338,-1.55644 -6.44671,-4.41337 -10.25183,-6.34871 -8.73065,-4.44053 -35.7622,-13.54343 -36.88469,-12.42094 -1.29637,1.29637 -2.62073,32.36125 -1.44296,33.8469 1.6491,2.08021 3.28684,1.48317 11.6582,-4.25 4.41699,-3.025 8.68201,-5.5 9.47782,-5.5 3.23382,0 9.62812,14.94295 9.58808,22.40655 -0.0495,9.22833 -7.84938,18.77026 -27.97804,34.22677 C 372.7489,287.34442 360.38802,301 365.03836,301 c 0.5711,0 5.06727,-2.70904 9.9915,-6.02008 z M 360.51456,280.75 c 4.26703,-6.52073 5.89795,-8.00442 16.21373,-14.75 15.38528,-10.06058 23.48085,-17.38681 23.07535,-20.88245 -0.23473,-2.02349 -0.9317,-2.68974 -3.07101,-2.93565 -2.41287,-0.27735 -4.69646,1.66794 -17.82632,15.18542 l -15.05895,15.50352 -7.17368,-0.51648 c -3.94552,-0.28406 -8.4096,-0.98393 -9.92016,-1.55528 -1.51056,-0.57134 -8.48556,-7.02878 -15.5,-14.34987 -12.3753,-12.91631 -16.02385,-15.51879 -19.75128,-14.08844 -5.33492,2.0472 2.79942,10.91083 21.16998,23.06801 8.66417,5.73374 13.61985,9.7196 15.26808,12.28017 3.19931,4.97019 7.07489,10.29105 7.49575,10.29105 0.18385,0 2.46918,-3.2625 5.07851,-7.25 z m 0.13646,-24.80742 c 4.109,-1.56224 1.24192,-2.90845 -6.23435,-2.92727 -6.60681,-0.0166 -8.00478,0.57113 -6.28555,2.64268 1.33085,1.60358 8.61518,1.76916 12.5199,0.28459 z M 358.8,236.8 c 3.21543,-3.21543 -1.68024,-7.08686 -6.3,-4.98195 -4.23564,1.92988 -2.51609,6.18195 2.5,6.18195 1.43,0 3.14,-0.54 3.8,-1.2 z m -13.77592,-16.34499 c 1.83142,-3.42204 -2.65371,-25.76 -5.27353,-26.26453 -2.93006,-0.56428 -3.98233,4.284 -3.51585,16.199 0.34473,8.8053 0.75476,11.12964 2.14229,12.14423 2.30837,1.68792 5.09817,0.81549 6.64709,-2.0787 z m 27.95323,-2.31325 c 1.29135,-4.64917 1.32121,-18.22639 0.0474,-21.57666 -1.21165,-3.18687 -3.78537,-3.32492 -4.94859,-0.26542 -0.48088,1.26482 -1.62195,7.00215 -2.53571,12.74961 l -1.66137,10.44995 2.66129,2.28914 c 3.22172,2.77121 4.92183,1.80808 6.43694,-3.64662 z"
         id="path2180" />
    </g>
  </g>
</svg>
